<?xml version="1.0" standalone="no"?>
<!DOCTYPE svg PUBLIC "-//W3C//DTD SVG 1.1//EN" "http://www.w3.org/Graphics/SVG/1.1/DTD/svg11.dtd" >
<svg xmlns="http://www.w3.org/2000/svg">
<metadata>Generated by IcoMoon</metadata>
<defs>
<font id="icomoon" horiz-adv-x="1024">
<font-face units-per-em="1024" ascent="960" descent="-64" />
<missing-glyph horiz-adv-x="1024" />
<glyph unicode="&#x20;" horiz-adv-x="512" d="" />
<glyph unicode="&#xe900;" glyph-name="coach" d="M938.984 259.392c-54.4 76.386-129.524 133.668-217.252 165.656-0.002 0-0.006 0.002-0.008 0.004-50.408 18.378-103.398 27.698-157.5 27.698s-107.094-9.318-157.5-27.698c-0.004 0-0.006-0.002-0.010-0.004-23.752-8.662-46.762-19.348-68.794-31.828v157.34c0 11.312-9.168 20.48-20.48 20.48h-296.96c-11.312 0-20.48-9.17-20.48-20.48v-419.84c0-11.312 9.168-20.48 20.48-20.48h99.074c-10.026-38.11-15.106-77.442-15.106-117.266 0-11.312 9.168-20.48 20.48-20.48h878.592c11.312 0 20.48 9.168 20.48 20.48 0 96.194-29.396 188.318-85.016 266.418zM141.638 530.080h54.644v-20.48h-54.644v20.48zM40.96 151.2v378.88h59.718v-40.96c0-11.312 9.168-20.48 20.48-20.48h95.606c11.312 0 20.48 9.168 20.48 20.48v40.96h59.716v-378.88h-256zM543.746 13.454h-397.846c1.586 32.922 7.010 65.348 16.16 96.786h155.38c11.312 0 20.48 9.168 20.48 20.48v214.718c20.738 13.34 42.61 24.824 65.31 34.288 13.596-25.674 33.13-47.72 57.292-64.486 24.906-17.282 53.348-27.914 83.222-31.254v-270.532zM442.262 393.754c39.376 11.976 80.302 18.034 121.962 18.034s82.586-6.058 121.962-18.034c-25.040-43.094-70.894-69.952-121.962-69.952s-96.922 26.86-121.962 69.952zM584.704 13.456v270.53c29.874 3.338 58.314 13.972 83.222 31.254 24.162 16.768 43.696 38.814 57.292 64.488 148.696-61.966 249.402-205.4 257.318-366.272h-397.832zM776.1 702.73c0 0.004 0 0.006 0 0.010-0.612 121.734-100.144 220.766-221.886 220.766-114.882 0-209.97-88.188-220.838-200.418h-151.942c-11.312 0-20.48-9.168-20.48-20.48s9.168-20.482 20.48-20.482h151.742c9.898-113.266 105.242-202.422 221.034-202.422 122.356 0 221.9 99.544 221.9 221.9l-0.010 1.126zM554.212 882.546c92.324 0 168.978-69.836 179.658-159.458h-359.316c10.678 89.622 87.336 159.458 179.658 159.458zM554.212 520.666c-33.17 0-64.26 9.010-91.020 24.662h26.548c11.312 0 20.48 9.168 20.48 20.48s-9.168 20.48-20.48 20.48h-74.788c-9.040 10.902-16.81 22.882-23.126 35.716h12.070c11.312 0 20.48 9.168 20.48 20.48s-9.168 20.48-20.48 20.48h-26.404c-1.374 6.28-2.462 12.662-3.164 19.166h359.78c-9.738-90.652-86.702-161.464-179.896-161.464zM632.832 245.248c-11.312 0-20.48-9.168-20.48-20.48v-26.624c0-11.312 9.168-20.48 20.48-20.48s20.48 9.168 20.48 20.48v26.624c0 11.312-9.168 20.48-20.48 20.48zM632.832 118.272c-11.312 0-20.48-9.168-20.48-20.48v-26.624c0-11.312 9.168-20.48 20.48-20.48s20.48 9.168 20.48 20.48v26.624c0 11.312-9.168 20.48-20.48 20.48zM81.92 355.84c-11.312 0-20.48-9.168-20.48-20.48v-143.36c0-11.312 9.168-20.48 20.48-20.48s20.48 9.168 20.48 20.48v143.36c0 11.312-9.168 20.48-20.48 20.48zM81.92 429.568c-11.312 0-20.48-9.168-20.48-20.48v-12.288c0-11.312 9.168-20.48 20.48-20.48s20.48 9.168 20.48 20.48v12.288c0 11.312-9.168 20.48-20.48 20.48z" />
<glyph unicode="&#xe901;" glyph-name="dumbbell" d="M964 548h-20v90c0 44.117-35.898 80-80 80-15.422 0-29.844-4.383-42.063-11.977-8.18 35.477-40.039 61.977-77.938 61.977h-0.023c-44.094 0-80-35.883-80-80v-140h-303.953v140c0 44.117-35.906 80-80.023 80-37.898 0-69.758-26.5-77.938-61.977-12.219 7.594-26.641 11.977-42.063 11.977-44.102 0-80-35.883-80-80v-90h-20c-33.078 0-60-26.922-60-60v-80c0-33.078 26.922-60 60-60h20v-90c0-44.117 35.898-80 80-80 15.422 0 29.844 4.383 42.063 11.977 8.18-35.477 40.039-61.977 77.938-61.977h0.023c44.094 0 80 35.883 80 80v140h303.953v-140c0-44.117 35.906-80 80.023-80 37.898 0 69.758 26.5 77.938 61.977 12.219-7.594 26.641-11.977 42.063-11.977 44.102 0 80 35.883 80 80v90h20c33.078 0 60 26.922 60 60v80c0 33.078-26.922 60-60 60zM80 388h-20c-11.023 0-20 8.977-20 20v80c0 11.023 8.977 20 20 20h20zM200 258c0-11.039-4.477-21.039-11.719-28.281s-17.242-11.719-28.281-11.719c-22.063 0-40 17.938-40 40v380c0 22.063 17.938 40 40 40s40-17.938 40-40zM320.023 208c0-22.063-17.961-40-40-40h-0.023c-22.039 0-40 17.938-40 40v480c0 22.063 17.961 40 40.023 40 22.039 0 40-17.938 40-40zM663.859 468h-139.859c-11.039 0-20-8.961-20-20s8.961-20 20-20h139.859v-40h-303.938v120h303.938zM784 208c0-22.063-17.961-40-40.023-40-22.039 0-40 17.938-40 40v238.977c-0.016-0.438-0.055-0.875-0.117-1.297v4.641c0.063-0.422 0.102-0.859 0.117-1.297v238.977c0 22.063 17.961 40 40 40h0.023c22.039 0 40-17.938 40-40zM904 258c0-22.063-17.938-40-40-40s-40 17.938-40 40v380c0 22.063 17.938 40 40 40s40-17.938 40-40zM984 408c0-11.023-8.977-20-20-20h-20v120h20c11.023 0 20-8.977 20-20zM444.039 428c-11.047 0-20.008 8.953-20.008 20s8.945 20 19.992 20h0.016c11.047 0 20-8.953 20-20s-8.953-20-20-20z" />
<glyph unicode="&#xe902;" glyph-name="heart-outline" d="M940.8 812.688c-53.729 53.732-125.156 83.3-201.144 83.3-75.999 0-147.433-29.568-201.182-83.3l-26.477-26.482-26.477 26.482c-53.732 53.732-125.183 83.3-201.165 83.3-75.98 0-147.436-29.568-201.163-83.3-110.926-110.936-110.926-291.435 0-402.328l397.478-397.48c6.499-6.523 14.59-10.517 23.042-12.055 2.835-0.559 5.686-0.819 8.542-0.819 11.244 0 22.507 4.289 31.071 12.874l397.478 397.48c110.931 110.893 110.931 291.392-0.003 402.328zM878.658 472.499l-366.658-366.664-366.666 366.664c-76.658 76.647-76.658 201.357 0 278.045 37.132 37.127 86.519 57.548 139.021 57.548 52.508 0 101.881-20.421 139-57.548l57.572-57.591c16.503-16.478 45.66-16.478 62.16 0l57.55 57.591c37.121 37.127 86.497 57.548 139.021 57.548 52.508 0 101.878-20.421 139-57.548 76.666-76.688 76.666-201.395 0-278.045z" />
<glyph unicode="&#xe903;" glyph-name="menu" d="M31.999 640h959.999c17.665 0 31.999 14.337 31.999 31.999 0 17.665-14.337 31.999-31.999 31.999h-959.999c-17.665 0-31.999-14.337-31.999-31.999s14.337-31.999 31.999-31.999zM991.998 479.999h-959.999c-17.665 0-31.999-14.337-31.999-31.999s14.337-31.999 31.999-31.999h959.999c17.665 0 31.999 14.337 31.999 31.999s-14.334 31.999-31.999 31.999zM991.998 256h-639.999c-17.665 0-31.999-14.337-31.999-31.999 0-17.665 14.337-31.999 31.999-31.999h639.999c17.665 0 31.999 14.337 31.999 31.999 0.003 17.665-14.334 31.999-31.999 31.999z" />
<glyph unicode="&#xe904;" glyph-name="play-button" d="M102.837-64c-29.001 0-52.513 23.513-52.513 52.513v918.976c0 29.001 23.513 52.511 52.513 52.511l853.334-472.613c0 0 39.385-39.385 0-78.772-39.385-39.383-853.334-472.615-853.334-472.615z" />
<glyph unicode="&#xe905;" glyph-name="right-arrow" d="M689.55 797.181c-13.95 14.438-37.168 14.438-51.606 0-13.95-13.95-13.95-37.168 0-51.086l261.674-261.674h-863.49c-20.129-0.033-36.128-16.032-36.128-36.16s15.999-36.648 36.128-36.648h863.49l-261.674-261.187c-13.95-14.438-13.95-37.689 0-51.606 14.438-14.438 37.689-14.438 51.606 0l323.622 323.622c14.438 13.95 14.438 37.168 0 51.086l-323.622 323.654z" />
<glyph unicode="&#xe906;" glyph-name="share1" d="M811.375 302.14c-58.897 0-111.415-28.066-145.010-71.442l-281.302 157.13c6.591 18.924 10.206 39.336 10.206 60.385 0 21.262-3.615 41.462-10.419 60.598l281.090 156.917c33.382-43.588 86.113-71.867 145.223-71.867 100.784 0 183.070 82.073 183.070 183.070s-82.073 183.070-183.070 183.070-183.070-82.073-183.070-183.070c0-21.262 3.615-41.674 10.419-60.598l-280.877-156.917c-33.382 43.801-86.113 71.867-145.223 71.867-100.784 0-183.070-82.073-183.070-183.070s82.286-183.070 183.282-183.070c59.11 0 111.841 28.279 145.435 72.080l281.090-157.13c-6.804-19.136-10.631-39.761-10.631-61.023 0-100.784 82.073-183.070 183.070-183.070s183.070 82.073 183.070 183.070-82.286 183.070-183.282 183.070zM811.375 902.379c69.316 0 125.661-56.346 125.661-125.661s-56.346-125.661-125.661-125.661-125.661 56.346-125.661 125.661 56.558 125.661 125.661 125.661zM212.625 322.551c-69.316 0-125.661 56.346-125.661 125.661s56.346 125.661 125.661 125.661 125.661-56.346 125.661-125.661-56.558-125.661-125.661-125.661zM811.375-6.379c-69.316 0-125.661 56.346-125.661 125.661s56.346 125.661 125.661 125.661 125.661-56.346 125.661-125.661c0-69.316-56.346-125.661-125.661-125.661z" />
<glyph unicode="&#xe907;" glyph-name="speaker" d="M701.12 812.612c-5.312 3.748-12.114 4.682-18.234 2.502l-432.658-153.88h-112.208c-76.106 0-138.020-61.916-138.020-138.020v-29.096c0-76.106 61.916-138.022 138.020-138.022h95.654v-256.364c0-11.048 8.958-20.004 20.004-20.004h139.31c7.16 0 13.772 3.826 17.34 10.032s3.548 13.846-0.052 20.034l-44.468 76.418v128.782l317.080-112.774c2.18-0.776 4.446-1.156 6.702-1.156 4.076 0 8.118 1.246 11.536 3.66 5.31 3.748 8.47 9.844 8.47 16.342v575.202c-0.006 6.5-3.164 12.596-8.476 16.344zM233.676 396.102h-36.318v97.244c0 11.048-8.958 20.004-20.004 20.004s-20.004-8.956-20.004-20.004v-97.244h-19.33c-54.046 0-98.014 43.968-98.014 98.016v29.096c0 54.046 43.968 98.014 98.014 98.014h95.654v-225.126zM273.682 119.734v228.020l52.118-18.536v-128.402h-19.318c-11.046 0-20.004-8.956-20.004-20.004s8.958-20.004 20.004-20.004h27.818l23.902-41.076h-84.52zM573.024 438.28c-11.046 0-20.004-8.956-20.004-20.004v-127.414l-279.338 99.352v236.9l279.336 99.35v-164.744c0-11.048 8.958-20.004 20.004-20.004s20.004 8.956 20.004 20.004v178.976l76.558 27.228v-518.514l-76.556 27.228v141.642c-0.002 11.044-8.96 20-20.004 20zM926.166 745.242c-7.814 7.812-20.476 7.812-28.29 0-7.812-7.812-7.812-20.478 0-28.29 55.636-55.634 86.276-129.606 86.276-208.286s-30.638-152.652-86.276-208.286c-7.812-7.812-7.812-20.478 0-28.29 3.906-3.906 9.026-5.858 14.144-5.858s10.238 1.952 14.144 5.858c130.45 130.448 130.45 342.704 0.002 473.152zM862.612 681.688c-7.812 7.812-20.474 7.812-28.29 0-7.812-7.812-7.812-20.478 0-28.288 79.806-79.808 79.806-209.662 0-289.47-7.812-7.812-7.812-20.478 0-28.288 3.906-3.906 9.026-5.858 14.144-5.858s10.238 1.954 14.144 5.858c95.406 95.406 95.406 250.64 0.002 346.046zM799.062 618.136c-7.812 7.812-20.474 7.812-28.29 0-7.812-7.812-7.812-20.478 0-28.288 44.764-44.764 44.764-117.602 0-162.366-7.812-7.812-7.812-20.478 0-28.288 3.906-3.906 9.026-5.858 14.144-5.858s10.238 1.954 14.144 5.858c60.362 60.364 60.362 158.58 0.002 218.942zM573.026 509.032c-11.046 0-20.004-8.956-20.004-20.004v-0.294c0-11.048 8.958-20.004 20.004-20.004s20.004 8.956 20.004 20.004v0.294c-0.002 11.048-8.96 20.004-20.004 20.004zM177.354 586.334c-11.046 0-20.004-8.956-20.004-20.004v-0.294c0-11.048 8.958-20.004 20.004-20.004s20.004 8.956 20.004 20.004v0.294c-0.002 11.050-8.96 20.004-20.004 20.004z" />
<glyph unicode="&#xe908;" glyph-name="valentines-heart" d="M1024 614.992c0 152.723-123.808 276.525-276.532 276.525-99.725 0-186.817-52.962-235.471-132.113-48.648 79.151-135.777 132.113-235.501 132.113-152.723 0-276.496-123.802-276.496-276.525 0-83.149 36.846-157.539 94.916-208.196l391.846-391.863c6.692-6.692 15.768-10.452 25.234-10.452s18.542 3.76 25.234 10.452l391.846 391.863c58.073 50.658 94.923 125.047 94.923 208.196z" />
<glyph unicode="&#xe909;" glyph-name="video" d="M83.349-12.403h856.509c18.257 0 32.546 14.288 32.546 32.546v856.509c0 18.257-14.288 32.546-32.546 32.546h-856.509c-18.257 0-32.546-14.288-32.546-32.546v-856.509c0-18.257 15.082-32.546 32.546-32.546zM799.355 844.105h107.957v-149.234h-107.957v149.234zM799.355 629.78h107.957v-149.234h-108.75v149.234zM800.149 415.454h108.75v-149.234h-107.957v149.234zM799.355 201.129h107.957v-149.234h-107.957v149.234zM288.943 844.105h445.321v-363.56h-445.321v363.56zM288.943 415.454h445.321v-363.56h-445.321v363.56zM115.895 844.105h107.957v-149.234h-107.957v149.234zM115.895 629.78h107.957v-149.234h-107.957v149.234zM115.895 415.454h107.957v-149.234h-107.957v149.234zM115.895 201.129h107.957v-149.234h-107.957v149.234z" />
<glyph unicode="&#xe90a;" d="M1002.922 192.402l-361.92 664.796c-27.602 45.602-75.602 73.202-129.002 73.202s-101.4-27.6-129.002-73.202l-361.92-664.796c-27.596-47.404-28.198-103.804-1.196-151.202 26.998-47.398 75.596-75.6 130.198-75.6h723.84c54.602 0 103.202 28.202 130.198 75.6 27.002 47.398 26.4 103.798-1.196 151.202z" />
<glyph unicode="&#xe90b;" d="M1004.118 41.2c-26.998-47.398-75.596-75.6-130.198-75.6h-361.92v964.8c53.4 0 101.4-27.602 129.002-73.202l361.92-664.798c27.596-47.402 28.198-103.802 1.196-151.2z" />
<glyph unicode="&#xe90c;" d="M951.322 161.8l-361.924 664.802c-16.196 27.598-45.596 43.798-77.398 43.798s-61.202-16.202-77.398-43.798l-361.924-664.802c-16.798-28.202-16.798-62.398-0.596-90.6 16.198-28.798 45.596-45.6 78-45.6h723.84c32.402 0 61.802 16.802 78 45.6 16.198 28.202 16.198 62.398-0.6 90.6z" />
<glyph unicode="&#xe90d;" d="M951.92 71.2c-16.198-28.798-45.596-45.6-78-45.6h-361.92v844.8c31.802 0 61.202-16.202 77.398-43.798l361.924-664.802c16.798-28.202 16.798-62.398 0.598-90.6z" />
<glyph unicode="&#xe90e;" d="M512 85.6c-33.076 0-60 26.924-60 60s26.924 60 60 60 60-26.924 60-60-26.924-60-60-60z" />
<glyph unicode="&#xe90f;" d="M572 325.6c0-33.076-26.924-60-60-60s-60 26.924-60 60v300c0 33.076 26.924 60 60 60s60-26.924 60-60v-300z" />
<glyph unicode="&#xe910;" d="M572 145.6c0 33.076-26.924 60-60 60v-120c33.076 0 60 26.924 60 60z" />
<glyph unicode="&#xe911;" d="M572 325.6v300c0 33.076-26.924 60-60 60v-420c33.076 0 60 26.924 60 60z" />
<glyph unicode="&#xe912;" glyph-name="maps-and-flags" d="M512 960c-204.49 0-370.854-166.364-370.854-370.852 0-253.776 331.878-626.334 346.008-642.070 13.272-14.782 36.444-14.756 49.692 0 14.13 15.736 346.008 388.294 346.008 642.070-0.004 204.488-166.366 370.852-370.854 370.852zM512 402.562c-102.884 0-186.584 83.702-186.584 186.586s83.702 186.584 186.584 186.584 186.582-83.702 186.582-186.586-83.7-186.584-186.582-186.584z" />
<glyph unicode="&#xe913;" glyph-name="next" d="M778.935 484.549l-460.488 460.335c-20.206 20.155-52.943 20.155-73.2 0-20.206-20.155-20.206-52.892 0-73.047l423.963-423.81-423.912-423.81c-20.206-20.155-20.206-52.892 0-73.098 20.206-20.155 52.994-20.155 73.2 0l460.488 460.335c19.9 19.947 19.9 53.198-0.051 73.093z" />
<glyph unicode="&#xe914;" glyph-name="sort-button-with-three-lines" d="M0 106.667h341.333v113.778h-341.333v-113.778zM0 789.333v-113.778h1024v113.778h-1024zM0 391.111h682.667v113.778h-682.667v-113.778z" />
<glyph unicode="&#xe915;" d="M1005.382 448c0-272.487-220.895-493.382-493.382-493.382s-493.382 220.895-493.382 493.382c0 272.487 220.895 493.382 493.382 493.382s493.382-220.895 493.382-493.382z" />
<glyph unicode="&#xe916;" d="M949.526 448c0-272.487-208.391-493.382-465.454-493.382s-465.454 220.895-465.454 493.382c0 272.487 208.391 493.382 465.454 493.382s465.454-220.895 465.454-493.382z" />
<glyph unicode="&#xe917;" d="M512-45.382c4.82 0 9.584 0.228 14.37 0.364-250.776 7.624-451.898 225.35-451.898 493.018s201.122 485.394 451.898 493.018c-4.786 0.136-9.552 0.364-14.37 0.364-272.488 0-493.382-220.894-493.382-493.382s220.894-493.382 493.382-493.382v0z" />
<glyph unicode="&#xe918;" d="M365.15 167.754l-147.222-80.304c-8.47-4.72-16.394-10.362-23.626-16.82 182.856-154.070 449.896-154.75 633.536-1.616-7.93 6.808-16.642 12.648-25.952 17.398l-157.636 78.816c-20.37 10.184-33.236 31.004-33.236 53.778v61.854c5.294 6.132 10.27 12.532 14.912 19.172 21.266 30.226 37.79 63.526 48.996 98.746 20.76 6.314 34.992 25.408 35.108 47.106v66.012c-0.054 13.984-6.054 27.286-16.502 36.582v95.436c0 0 19.596 148.522-181.528 148.522s-181.528-148.522-181.528-148.522v-95.436c-10.448-9.296-16.448-22.598-16.502-36.582v-66.012c0.052-16.824 8.648-32.468 22.818-41.534 10.956-44.916 31.3-87.004 59.694-123.49v-60.32c0-22.004-12.016-42.248-31.332-52.786z" />
<glyph unicode="&#xe919;" d="M793.248 87.68l-207.392 78.816c-20.37 10.184-33.236 31.004-33.236 53.778v61.854c5.294 6.132 10.27 12.532 14.912 19.172 21.266 30.226 37.79 63.526 48.996 98.746 20.76 6.314 34.992 25.408 35.108 47.106v66.012c-0.054 13.984-6.056 27.286-16.502 36.582v95.436c0 0 19.596 148.522-181.528 148.522-11.972 0-23.11-0.558-33.568-1.55 1.22-9.668-4.206-18.952-13.23-22.632-24.080-9.878-47.384-21.552-69.716-34.922 9.202-1.61 15.898-9.622 15.848-18.964 4.012-68.544-19.568-149.024-40.762-219.086 0.652-27.586 1.256-55.178 2.058-82.764 2.038-6.368 4.082-12.732 6.080-19.108 3.85-2.34 6.868-5.83 8.63-9.978 8.504-20.254 17.986-41.012 26.212-62.152 11.212 3.126 22.98-2.684 27.316-13.484 7.258-20.498 11.804-41.858 13.52-63.536 0.878-6.51-2.306-12.898-8.032-16.118-10.352-35.856-27.832-69.254-51.394-98.196-5.108-4.976-12.452-6.906-19.348-5.086-6.894 1.82-12.33 7.124-14.316 13.972-0.998 3.462-1.81 6.974-2.43 10.522-13.844-8.222-28.686-15.406-44.708-24.378-8.604-4.818-73.976-34.828-75.608-42.272-9.238-42.122 138.438-94.364 212.576-123.9 20.186-2.646 40.516-4.044 60.874-4.186 120.164 0 280.014 43 365.594 114.396-7.932 6.808-16.644 12.648-25.954 17.398v0z" />
<glyph unicode="&#xe91a;" d="M512-64c-282.77 0-512 229.23-512 512s229.23 512 512 512 512-229.23 512-512c-0.326-282.634-229.366-511.674-512-512zM512 922.764c-262.204 0-474.764-212.56-474.764-474.764s212.56-474.764 474.764-474.764 474.764 212.56 474.764 474.764c-0.3 262.080-212.684 474.464-474.764 474.764z" />
<glyph unicode="&#xe91b;" d="M512-64c-120.65 0.068-237.408 42.704-329.71 120.4-4.156 3.504-6.572 8.648-6.618 14.082s2.286 10.618 6.382 14.19c8.256 7.348 17.3 13.764 26.964 19.128l147.218 80.29c13.34 7.278 21.638 21.26 21.636 36.454v53.872c-26.584 35.626-46.126 75.996-57.582 118.946-15.786 12.872-24.946 32.16-24.946 52.528v66c0.056 16.204 5.912 31.852 16.51 44.11v86.892c-3.218 39.598 9.388 78.858 35.054 109.182 34.31 39.144 89.856 58.98 165.092 58.98s130.782-19.836 165.090-58.982c25.666-30.324 38.27-69.584 35.054-109.182v-86.89c10.596-12.258 16.454-27.906 16.51-44.11v-66c0.032-26.214-15.098-50.080-38.818-61.236-11.65-33.934-28.048-66.048-48.71-95.38-3.982-5.618-7.836-10.71-11.49-15.218v-55.054c-0.050-15.732 8.85-30.126 22.946-37.112l157.636-78.818c10.628-5.402 20.57-12.056 29.618-19.818 4.21-3.548 6.632-8.776 6.618-14.28s-2.464-10.72-6.692-14.246c-92.024-76.66-207.99-118.666-327.762-118.728zM224.872 70c168.784-128.32 402.216-129.086 571.836-1.872-1.054 0.564-2.090 1.11-3.146 1.636l-157.636 78.818c-26.75 13.252-43.632 40.566-43.528 70.418v61.854c0 4.516 1.64 8.878 4.618 12.272 4.862 5.658 9.436 11.556 13.708 17.672 20.174 28.68 35.846 60.276 46.472 93.69 1.866 5.778 6.434 10.284 12.236 12.072 12.92 3.964 21.802 15.814 21.982 29.328v66c-0.030 8.724-3.804 17.014-10.364 22.764-3.912 3.528-6.146 8.55-6.146 13.818v95.436c0 0.814 0.054 1.628 0.164 2.436 2.174 29.576-7.264 58.834-26.31 81.564-26.98 30.454-72.98 45.908-136.762 45.908-64.036 0-110.164-15.582-137.090-46.29-19.004-22.588-28.338-51.756-25.982-81.182 0.11-0.808 0.164-1.622 0.164-2.436v-95.436c0-5.268-2.234-10.29-6.146-13.818-6.56-5.75-10.334-14.040-10.364-22.764v-66c0.038-10.512 5.432-20.278 14.31-25.91 4.068-2.634 6.95-6.75 8.036-11.472 10.364-42.046 29.394-81.462 55.874-115.728 2.776-3.356 4.298-7.572 4.31-11.928v-60.308c0.006-28.826-15.742-55.352-41.054-69.146v0l-147.218-80.29c-0.654-0.36-1.308-0.724-1.964-1.106z" />
<glyph unicode="&#xe91c;" glyph-name="wallet" d="M1018.86 482.98h-49.13v226.002c0 54.182-44.079 98.261-98.261 98.261h-66.542l-68.095 122.433c-10.378 18.711-30.129 30.325-51.549 30.325-9.984 0-19.888-2.575-28.634-7.427l-261.335-145.327h-291.914c-54.182 0-98.261-44.079-98.261-98.261v-674.721c0-54.182 44.079-98.261 98.261-98.261h768.068c54.182 0 98.261 44.079 98.261 98.261v198.154h49.13v250.562zM871.469 767.94c30.263 0 54.986-22.992 58.307-52.411h-73.853l-29.126 52.411h44.672zM675.77 918.221c9.216 5.168 21.619 1.553 26.707-7.626l108.48-195.047h-499.675l364.488 202.674zM930.424 34.264c0-32.505-26.453-58.958-58.958-58.958h-768.065c-32.505 0-58.958 26.453-58.958 58.958v674.718c0 32.505 26.453 58.958 58.958 58.958h221.244l-94.252-52.414h-114.709c-10.868 0-19.653-8.804-19.653-19.653s8.785-19.653 19.653-19.653h814.74v-193.258h-143.715c-66.74 0-121.057-54.319-121.057-121.057v-8.452c0-66.74 54.319-121.057 121.057-121.057h143.715v-198.133zM979.554 271.72h-192.846c-45.082 0-81.754 36.67-81.754 81.754v8.452c0 45.082 36.67 81.754 81.754 81.754h192.846v-171.961zM846.902 356.086c0-23.977-19.417-43.391-43.391-43.391-23.977 0-43.391 19.417-43.391 43.391s19.417 43.391 43.391 43.391c23.977 0.003 43.391-19.433 43.391-43.391z" />
<glyph unicode="&#xe91d;" glyph-name="cancel" d="M588.205 448l420.005 420.005c8.929 9.591 14.409 22.496 14.409 36.681 0 29.764-24.129 53.893-53.893 53.893-14.205 0-27.126-5.496-36.754-14.477l0.032 0.029-420.005-420.005-420.005 420.005c-9.5 8.554-22.138 13.786-35.998 13.786-29.764 0-53.893-24.129-53.893-53.893 0-13.87 5.24-26.516 13.847-36.067l-0.043 0.048 420.005-420.005-420.005-420.005c-8.813-9.564-14.216-22.387-14.216-36.472 0-29.764 24.129-53.893 53.893-53.893 14.055 0 26.854 5.381 36.448 14.194l-0.039-0.035 420.005 420.005 420.005-420.005c9.811-10.129 23.536-16.417 38.73-16.417 29.764 0 53.893 24.129 53.893 53.893 0 15.194-6.288 28.919-16.403 38.716l-0.014 0.014z" />
<glyph unicode="&#xe91e;" glyph-name="login" horiz-adv-x="989" d="M795.089 696.814c9.162 0 16.589 7.427 16.589 16.589v0 176.935c-0.049 38.454-31.209 69.613-69.658 69.662h-672.358c-38.454-0.049-69.613-31.209-69.662-69.658v-884.68c0.049-38.454 31.209-69.613 69.658-69.662h672.358c38.454 0.049 69.613 31.209 69.662 69.658v176.94c0 9.17-7.434 16.603-16.603 16.603s-16.603-7.434-16.603-16.603v0-176.935c-0.016-20.151-16.348-36.482-36.497-36.499h-672.312c-20.145 0.025-36.468 16.353-36.484 36.497v884.677c0.041 20.127 16.355 36.431 36.482 36.455h672.356c20.151-0.016 36.482-16.348 36.499-36.497v-176.894c0-9.157 7.419-16.581 16.574-16.589h0.001zM441.233 889.226h-70.745c-9.17 0-16.603-7.434-16.603-16.603s7.434-16.603 16.603-16.603h70.745c9.17 0 16.603 7.434 16.603 16.603s-7.434 16.603-16.603 16.603v0zM299.685 889.139c-0.013 0-0.028 0-0.043 0-9.186 0-16.632-7.447-16.632-16.632s7.447-16.632 16.632-16.632c9.171 0 16.608 7.422 16.632 16.587v0.175c-0.008 9.116-7.4 16.503-16.517 16.503-0.025 0-0.051 0-0.076 0h0.004zM441.233 39.952h-70.745c-9.17 0-16.603-7.434-16.603-16.603s7.434-16.603 16.603-16.603h70.745c9.17 0 16.603 7.434 16.603 16.603s-7.434 16.603-16.603 16.603v0zM724.373 696.77c9.162 0 16.589 7.427 16.589 16.589v0 88.504c0 9.162-7.427 16.589-16.589 16.589v0h-637.024c-9.162 0-16.589-7.427-16.589-16.589v0-707.726c0-9.162 7.427-16.589 16.589-16.589v0h637.024c9.162 0 16.589 7.427 16.589 16.589v0 88.46c0 9.17-7.434 16.603-16.603 16.603s-16.603-7.434-16.603-16.603v0-71.871h-603.817v674.548h603.788v-71.886c0-0.009 0-0.019 0-0.029 0-9.162 7.427-16.589 16.589-16.589 0.020 0 0.041 0 0.061 0h-0.003zM529.693 234.573h-141.49c-9.17 0-16.603-7.434-16.603-16.603s7.434-16.603 16.603-16.603h141.49c9.17 0 16.603 7.434 16.603 16.603s-7.434 16.603-16.603 16.603v0zM317.371 234.573h-35.387c-9.17 0-16.603-7.434-16.603-16.603s7.434-16.603 16.603-16.603h35.387c9.17 0 16.603 7.434 16.603 16.603s-7.434 16.603-16.603 16.603v0zM405.846 676.904c-48.249 0-87.363-39.114-87.363-87.363s39.114-87.363 87.363-87.363c48.249 0 87.363 39.114 87.363 87.363v0c-0.058 48.226-39.137 87.306-87.358 87.363h-0.005zM405.846 535.414c-29.926 0-54.185 24.259-54.185 54.185s24.259 54.185 54.185 54.185c29.926 0 54.185-24.259 54.185-54.185v0c0-29.937-24.252-54.21-54.182-54.243h-0.003zM777.388 659.218c-0.053 0-0.115 0-0.178 0-116.553 0-211.037-94.485-211.037-211.037 0-62.943 27.556-119.45 71.262-158.116l0.224-0.195c-13.715-22.594-29.603-42.051-47.817-59.047l-0.16-0.148c-3.572-3.061-5.82-7.577-5.82-12.619 0-9.162 7.427-16.589 16.589-16.589 0.001 0 0.001 0 0.002 0v0c0.433 0 0.881 0 1.314 0 45.216 5.078 86.055 20.306 121.33 43.344l-1.064-0.652c16.594-4.685 35.652-7.378 55.338-7.378 116.656 0 211.225 94.569 211.225 211.225 0 116.65-94.559 211.215-211.207 211.225h-0.001zM777.388 269.96c-0.045 0-0.099 0-0.153 0-19.020 0-37.343 2.983-54.526 8.507l1.26-0.35c-1.484 0.481-3.191 0.759-4.963 0.759-3.676 0-7.073-1.195-9.824-3.217l0.046 0.032c-17.803-12.795-38.405-23.24-60.53-30.269l-1.552-0.426c9.054 11.815 17.801 25.143 25.564 39.094l0.857 1.679c1.279 2.297 2.032 5.038 2.032 7.956 0 5.339-2.523 10.090-6.441 13.124l-0.038 0.028c-42.332 32.828-69.316 83.697-69.316 140.869 0 98.197 79.604 177.801 177.801 177.801s177.801-79.604 177.801-177.801c0-98.197-79.604-177.801-177.801-177.801-0.071 0-0.142 0-0.213 0h0.011zM864.188 534.793c-9.395 9.342-22.346 15.117-36.645 15.117-28.706 0-51.976-23.27-51.976-51.976 0-8.36 1.974-16.259 5.48-23.256l-0.136 0.3-90.308-90.308c-3.002-3.002-4.859-7.15-4.859-11.731 0-9.162 7.427-16.59 16.59-16.59 4.581 0 8.729 1.857 11.731 4.859l13.297 13.297 13.297-13.297c3.002-3.002 7.15-4.859 11.731-4.859 9.162 0 16.59 7.427 16.59 16.59 0 4.581-1.857 8.729-4.859 11.731l-13.297 13.297 53.564 53.564c6.705-3.379 14.614-5.358 22.985-5.358 28.706 0 51.976 23.27 51.976 51.976 0 14.307-5.78 27.263-15.133 36.662l0.002-0.002zM840.727 484.751c-3.395-3.386-8.080-5.479-13.254-5.479-10.366 0-18.769 8.403-18.769 18.769s8.403 18.769 18.769 18.769c10.363 0 18.765-8.399 18.769-18.761v0c0-0.002 0-0.005 0-0.008 0-5.192-2.108-9.891-5.515-13.289v0zM492.79 469.693c-5.746 4.362-13.019 6.987-20.905 6.987-10.452 0-19.827-4.612-26.2-11.912l-0.035-0.041c-9.811-10.967-24.006-17.837-39.805-17.837s-29.994 6.87-39.76 17.786l-0.045 0.051c-6.408 7.341-15.783 11.953-26.235 11.953-7.886 0-15.158-2.625-20.991-7.050l0.086 0.063c-32.695-25.789-53.492-65.406-53.492-109.88 0-0.104 0-0.208 0-0.311v0.016-53.073c0-9.162 7.427-16.589 16.589-16.589v0h247.709c9.156 0.008 16.575 7.432 16.575 16.589 0 0 0 0 0 0v0 53.073c0 0.090 0 0.196 0 0.302 0 44.472-20.797 84.086-53.197 109.647l-0.296 0.225zM513.076 323.034h-214.502v36.499c0 0.058 0 0.127 0 0.196 0 33.948 15.855 64.193 40.563 83.734l0.224 0.171c0.829-0.070 1.55-0.482 2.031-1.091l0.005-0.006c15.908-17.712 38.884-28.802 64.45-28.802s48.542 11.090 64.38 28.722l0.071 0.080c0.485 0.569 1.146 0.976 1.898 1.137l0.023 0.004c24.982-19.694 40.874-49.956 40.874-83.93 0-0.070 0-0.14 0-0.21v0.011-36.484z" />
</font>
</defs>
</svg>
