<svg xmlns="http://www.w3.org/2000/svg" width="20.751" height="14.348" viewBox="0 0 20.751 14.348"><g transform="translate(0 -79)"><g transform="translate(0 79)"><path d="M14.348,83.282v-1.85A2.435,2.435,0,0,0,11.916,79H2.432A2.435,2.435,0,0,0,0,81.432v9.484a2.435,2.435,0,0,0,2.432,2.432h9.484a2.435,2.435,0,0,0,2.432-2.432V89.107l6.4,3.2V80.08Zm-1.621,7.634a.812.812,0,0,1-.811.811H2.432a.812.812,0,0,1-.811-.811V81.432a.812.812,0,0,1,.811-.811h9.484a.812.812,0,0,1,.811.811Zm6.4-1.231-4.783-2.391v-2.2L19.13,82.7Z" transform="translate(0 -79)"/></g></g></svg>