<svg xmlns="http://www.w3.org/2000/svg" width="41" height="28.348" viewBox="0 0 41 28.348"><defs><style>.a{opacity:0.11;}</style></defs><g class="a" transform="translate(0 -79)"><g transform="translate(0 79)"><path d="M28.348,87.459V83.8a4.81,4.81,0,0,0-4.8-4.8H4.8A4.81,4.81,0,0,0,0,83.8v18.738a4.81,4.81,0,0,0,4.8,4.8H23.543a4.81,4.81,0,0,0,4.8-4.8V98.968L41,105.295V81.133Zm-3.2,15.084a1.6,1.6,0,0,1-1.6,1.6H4.8a1.6,1.6,0,0,1-1.6-1.6V83.8a1.6,1.6,0,0,1,1.6-1.6H23.543a1.6,1.6,0,0,1,1.6,1.6ZM37.8,100.112l-9.449-4.725V91.041L37.8,86.316Z" transform="translate(0 -79)"/></g></g></svg>