<svg xmlns="http://www.w3.org/2000/svg" width="24.667" height="15.417" viewBox="0 0 24.667 15.417"><g transform="translate(0.001)"><path d="M23.221,5.3h-.482V3.131A1.926,1.926,0,0,0,19.8,1.493,1.93,1.93,0,0,0,17.921,0h0a1.929,1.929,0,0,0-1.927,1.927V5.3H8.672V1.927a1.927,1.927,0,0,0-3.805-.434,1.926,1.926,0,0,0-2.94,1.639V5.3H1.445A1.447,1.447,0,0,0,0,6.745V8.672a1.447,1.447,0,0,0,1.445,1.445h.482v2.168a1.926,1.926,0,0,0,2.94,1.639,1.93,1.93,0,0,0,1.877,1.493h0A1.929,1.929,0,0,0,8.672,13.49V10.117h7.322V13.49a1.927,1.927,0,0,0,3.805.434,1.926,1.926,0,0,0,2.94-1.639V10.117h.482a1.447,1.447,0,0,0,1.445-1.445V6.745A1.447,1.447,0,0,0,23.221,5.3ZM1.926,9.154H1.445a.482.482,0,0,1-.482-.482V6.745a.482.482,0,0,1,.482-.482h.482Zm2.891,3.132a.964.964,0,0,1-1.927,0V3.131a.964.964,0,1,1,1.927,0Zm2.891,1.2a.965.965,0,0,1-.964.964h0a.965.965,0,0,1-.964-.964V1.927a.964.964,0,0,1,1.928,0Zm8.282-6.263H12.622a.482.482,0,0,0,0,.964h3.369v.964H8.669V6.263h7.321Zm2.894,6.263a.964.964,0,0,1-1.928,0V7.733a.283.283,0,0,1,0,.031V7.652a.283.283,0,0,1,0,.031V1.927a.965.965,0,0,1,.964-.964h0a.965.965,0,0,1,.964.964Zm2.891-1.2a.964.964,0,1,1-1.927,0V3.131a.964.964,0,0,1,1.927,0ZM23.7,8.672a.482.482,0,0,1-.482.482h-.482V6.263h.482a.482.482,0,0,1,.482.482Zm0,0"/><path d="M212.5,150.964a.482.482,0,0,1,0-.964h0a.482.482,0,1,1,0,.964Zm0,0" transform="translate(-201.802 -142.773)"/></g></svg>