<svg id="scale-screen" xmlns="http://www.w3.org/2000/svg" width="15.5" height="15.5" viewBox="0 0 15.5 15.5">
  <path id="Path_21" data-name="Path 21" d="M73.648,61.667H70.7a.213.213,0,0,0-.151.363l1.111,1.11-7.7,7.744-1.11-1.11a.213.213,0,0,0-.363.15v2.949a.212.212,0,0,0,.213.213h2.95a.213.213,0,0,0,.151-.363l-1.11-1.11L70.554,65.7l1.833-1.833,1.11,1.11a.213.213,0,0,0,.363-.15V61.879A.213.213,0,0,0,73.648,61.667Z" transform="translate(-60.431 -59.642)" fill="#020202"/>
  <path id="Path_22" data-name="Path 22" d="M14.285,0H1.215A1.215,1.215,0,0,0,0,1.215v13.07A1.215,1.215,0,0,0,1.215,15.5h13.07A1.215,1.215,0,0,0,15.5,14.285V1.215A1.215,1.215,0,0,0,14.285,0Zm.182,14.285a.182.182,0,0,1-.182.182H1.215a.182.182,0,0,1-.182-.182V1.215a.182.182,0,0,1,.182-.182h13.07a.182.182,0,0,1,.182.182v13.07Z" fill="#020202"/>
</svg>
